<?xml version="1.0" standalone="no"?>
<!DOCTYPE svg PUBLIC "-//W3C//DTD SVG 20010904//EN"
 "http://www.w3.org/TR/2001/REC-SVG-20010904/DTD/svg10.dtd">
<svg version="1.0" xmlns="http://www.w3.org/2000/svg"
 width="512.000000pt" height="512.000000pt" viewBox="0 0 512.000000 512.000000"
 preserveAspectRatio="xMidYMid meet">
<metadata>
Created by potrace 1.14, written by Peter Selinger 2001-2017
</metadata>
<g transform="translate(0.000000,512.000000) scale(0.100000,-0.100000)"
fill="#000000" stroke="none">
<path d="M2060 4939 c-408 -29 -908 -126 -1183 -229 -111 -42 -167 -119 -167
-232 l0 -48 -83 0 c-214 0 -367 -106 -392 -273 l-7 -47 -50 0 c-54 0 -102 -20
-118 -49 -6 -13 -10 -167 -10 -428 0 -371 2 -410 18 -429 26 -32 55 -44 110
-44 l49 0 5 -122 c8 -183 53 -303 152 -406 66 -70 125 -95 234 -100 l92 -4 0
-832 c0 -931 -2 -901 68 -969 41 -40 109 -67 169 -67 l33 0 0 -245 0 -245 265
0 265 0 0 245 0 245 1020 0 1020 0 0 -245 0 -245 265 0 265 0 0 244 0 243 94
5 c79 4 102 10 140 32 49 28 77 62 94 115 9 25 12 267 12 876 l0 843 88 4 c68
3 98 10 137 30 148 76 245 279 245 514 l0 84 51 0 c56 0 85 12 111 44 16 19
18 58 18 429 0 261 -4 415 -10 428 -16 29 -64 49 -119 49 l-50 0 -7 48 c-24
163 -178 272 -386 272 l-78 0 0 63 c-1 117 -57 187 -184 226 -203 62 -779 164
-1136 200 -297 31 -765 40 -1040 20z m850 -139 c47 -14 56 -20 64 -52 6 -27 5
-28 -38 -28 -30 0 -46 5 -50 15 -7 19 -46 20 -46 1 0 -20 22 -35 80 -52 64
-19 104 -56 119 -110 16 -59 13 -82 -14 -109 -21 -22 -33 -25 -92 -25 -79 0
-153 28 -153 57 0 10 -3 35 -7 56 l-6 38 54 -3 c47 -3 54 -6 57 -26 4 -28 40
-50 48 -28 16 41 0 61 -66 84 -85 30 -112 59 -108 120 2 38 8 49 28 59 30 15
83 16 130 3z m-504 -25 c21 -32 5 -86 -32 -105 -23 -13 -23 -15 -7 -24 10 -5
21 -14 25 -20 13 -19 9 -86 -7 -116 -28 -53 -48 -60 -182 -60 -136 0 -136 0
-103 63 23 42 82 220 79 239 -6 47 -4 48 106 48 100 0 105 -1 121 -25z m160
-107 l-1 -133 25 0 c24 0 25 2 25 70 0 39 -4 98 -8 133 l-8 62 55 0 55 0 -2
-62 c-1 -35 0 -103 2 -152 l4 -89 -32 -29 c-27 -24 -39 -28 -95 -28 -112 0
-138 41 -125 195 4 50 5 107 2 128 l-6 37 55 0 55 0 -1 -132z m-1856 -1183 l0
-815 -72 0 c-88 0 -141 27 -187 96 -55 83 -73 147 -79 277 l-5 117 42 0 c52 0
94 21 109 55 19 41 17 807 -2 844 -18 33 -54 51 -106 51 -44 0 -48 8 -29 57
31 82 130 128 282 132 l47 1 0 -815z m2360 805 c332 -23 720 -72 1003 -126
l137 -26 0 -894 0 -894 -134 0 -134 0 -6 45 c-8 52 -45 101 -91 121 -25 10
-27 14 -12 19 23 9 64 80 72 126 22 119 -103 245 -223 225 -133 -21 -210 -162
-153 -279 12 -24 30 -52 41 -62 19 -17 19 -18 -13 -39 -44 -30 -77 -82 -77
-122 l0 -34 -1255 0 -1255 0 0 894 0 894 162 31 c292 55 560 91 828 111 80 5
163 12 185 13 101 9 795 6 925 -3z m1531 -10 c73 -20 133 -77 145 -137 6 -33
6 -33 -35 -33 -48 0 -96 -21 -111 -49 -6 -13 -10 -167 -10 -428 0 -371 2 -410
18 -429 25 -31 55 -44 103 -44 l42 0 -5 -117 c-6 -130 -24 -194 -79 -277 -45
-67 -99 -96 -182 -96 l-67 0 0 816 0 817 73 -7 c39 -4 88 -11 108 -16z m-1631
-2215 l0 -65 -380 0 -380 0 0 65 0 65 380 0 380 0 0 -65z m-1800 -15 c232 -20
439 -67 658 -147 l122 -45 0 -194 0 -194 -485 0 -485 0 0 295 0 295 38 0 c20
0 89 -5 152 -10z m3030 -285 l0 -295 -490 0 -490 0 0 190 0 189 28 15 c47 24
259 95 362 121 162 40 377 70 528 74 l62 1 0 -295z m-1230 85 l0 -60 -380 0
-380 0 0 60 0 60 380 0 380 0 0 -60z m0 -215 l0 -65 -380 0 -380 0 0 65 0 65
380 0 380 0 0 -65z m0 -215 l0 -60 -380 0 -380 0 0 60 0 60 380 0 380 0 0 -60z
m-1626 -144 c62 -58 49 -163 -25 -202 -87 -44 -189 15 -189 111 0 78 49 124
132 125 39 0 52 -5 82 -34z m2620 13 c101 -79 52 -229 -74 -229 -53 0 -91 23
-115 70 -43 84 19 180 115 180 33 0 55 -6 74 -21z m-994 -84 l0 -65 -380 0
-380 0 0 65 0 65 380 0 380 0 0 -65z"/>
<path d="M2267 4718 c-6 -41 -3 -44 29 -30 32 15 30 55 -2 60 -18 2 -23 -3
-27 -30z"/>
<path d="M2246 4622 c-2 -4 -7 -26 -11 -49 -6 -38 -5 -43 13 -43 30 0 48 31
43 76 -1 13 -39 26 -45 16z"/>
</g>
</svg>
